<svg width="1110" height="465" viewBox="0 0 1110 465" fill="none" xmlns="http://www.w3.org/2000/svg">
<path d="M772.042 131.575L-268.17 -147.15L-253.353 -202.449L786.86 76.2755L787.343 76.4049L787.472 75.9219L879.847 -268.823L935.146 -254.006L842.771 90.7393L842.642 91.2223L843.125 91.3517L978.162 127.535L978.645 127.664L978.774 127.181L1071.15 -217.565L1126.45 -202.747L1034.07 141.999L1033.94 142.482L1034.43 142.611L1408.15 242.75L1393.33 298.049L1019.61 197.91L1019.13 197.781L1019 198.264L982.814 333.3L982.685 333.783L983.168 333.913L1356.89 434.052L1342.08 489.351L968.351 389.212L967.868 389.082L967.738 389.565L883.128 705.333L827.828 690.515L912.439 374.748L912.568 374.265L912.085 374.136L777.048 337.953L776.565 337.823L776.436 338.306L691.826 654.074L636.526 639.256L721.136 323.489L721.266 323.006L720.783 322.877L-319.429 44.1521L-304.612 -11.1472L735.6 267.577L736.083 267.707L736.213 267.224L772.396 132.187L772.525 131.704L772.042 131.575ZM828.307 146.651L827.825 146.522L827.695 147.005L791.512 282.041L791.383 282.524L791.866 282.654L926.903 318.836L927.386 318.966L927.515 318.483L963.698 183.446L963.828 182.964L963.344 182.834L828.307 146.651Z" stroke="#374A70" stroke-opacity="0.15"/>
</svg>
