<svg width="56" height="15" viewBox="0 0 56 15" fill="none" xmlns="http://www.w3.org/2000/svg">
<path d="M0.272705 12.5647H6.33179V10.5223H2.46582V2.73096H0.272705V12.5647ZM9.39947 12.5647V5.79143H7.20655V12.5647H9.39947ZM8.3032 4.86682C9.06777 4.86682 9.54376 4.34667 9.54376 3.69629C9.52958 3.03175 9.06777 2.52636 8.31777 2.52636C7.56757 2.52636 7.07701 3.03195 7.07701 3.69629C7.07701 4.34667 7.553 4.86682 8.28883 4.86682H8.3032ZM10.4176 12.5647H12.6105V8.78207C12.6105 8.57963 12.6247 8.3772 12.6827 8.233C12.841 7.82853 13.2018 7.40951 13.8077 7.40951C14.6014 7.40951 14.919 8.03077 14.919 8.94082V12.5645H17.1115V8.68095C17.1115 6.60037 16.0296 5.63228 14.5867 5.63228C13.4038 5.63228 12.8843 6.31118 12.5957 6.77369H12.6105V5.79143H10.4176C10.4465 6.42705 10.4176 12.5647 10.4176 12.5647ZM20.2052 2.73096H18.0123V12.5647H20.2052V10.3687L20.7533 9.66025L22.4702 12.5647H25.1679L22.2828 8.36009L24.8072 5.49969H22.1674C22.1674 5.49969 20.3641 8.0587 20.2052 8.36245V2.73096Z" fill="#374A70"/>
<path d="M31.0321 9.73934C31.061 9.56543 31.1043 9.23178 31.1043 8.85446C31.1043 7.1036 30.2386 5.32598 27.9592 5.32598C25.521 5.32598 24.3956 7.30563 24.3956 9.10116C24.3956 11.3218 25.7663 12.7085 28.161 12.7085C29.1134 12.7085 29.9931 12.5645 30.7147 12.261L30.4262 10.7741C29.8344 10.9756 29.2285 11.0765 28.4785 11.0765C27.4543 11.0765 26.56 10.6447 26.4878 9.72478L31.0321 9.73894V9.73934ZM26.4734 8.21628C26.5311 7.6383 26.9065 6.78549 27.8441 6.78549C28.8393 6.78549 29.0704 7.69594 29.0704 8.21628H26.4734ZM36.5171 2.73096V6.13511H36.4881C36.1706 5.65864 35.507 5.34073 34.6275 5.34073C32.9393 5.34073 31.4534 6.72765 31.4676 9.09703C31.4676 11.2933 32.8096 12.7237 34.4828 12.7237C35.3919 12.7237 36.2572 12.3188 36.6903 11.5386H36.7334L36.8202 12.5647H38.7677C38.7389 12.0879 38.7098 11.2644 38.7098 10.4552V2.73076H36.5169L36.5171 2.73096ZM36.5171 9.42949C36.5171 9.60261 36.5027 9.77632 36.4736 9.92033C36.3442 10.542 35.8247 10.975 35.1899 10.975C34.2812 10.975 33.6895 10.2239 33.6895 9.03919C33.6895 7.9269 34.1948 7.031 35.2044 7.031C35.8824 7.031 36.3584 7.50767 36.4883 8.09982C36.5171 8.23025 36.5171 8.37484 36.5171 8.50468V9.42949Z" fill="#374A70"/>
<path fill-rule="evenodd" clip-rule="evenodd" d="M41.9883 0C41.3958 0 40.9152 0.48139 40.9152 1.07452V13.9259C40.9152 14.519 41.3958 15 41.9883 15H54.3609C54.9536 15 55.434 14.519 55.434 13.9257V1.07452C55.434 0.48139 54.9536 0 54.3609 0H41.9883ZM45.3163 5.78317V12.5565H43.1234V5.78317H45.3163ZM46.5301 12.5565H48.7228V8.77439C48.7228 8.57216 48.7372 8.36953 48.7951 8.22513C48.9535 7.82047 49.3143 7.40164 49.9203 7.40164C50.7136 7.40164 51.0311 8.0227 51.0311 8.93335V12.5565H53.2238V8.67288C53.2238 6.5925 52.1421 5.62441 50.6994 5.62441C49.5361 5.62441 49.0145 6.28077 48.723 6.74223V5.78336H46.5303C46.5588 6.41879 46.5301 12.5565 46.5301 12.5565ZM48.723 6.74223V6.76542H48.7084L48.723 6.74223ZM45.4608 3.68842C45.4608 4.33841 44.9848 4.85855 44.2203 4.85855H44.2059C43.4699 4.85855 42.9941 4.33841 42.9941 3.68842C42.9941 3.02369 43.4842 2.5181 44.2348 2.5181C44.9848 2.5181 45.4465 3.02369 45.4608 3.68842Z" fill="#374A70"/>
</svg>
