<svg width="130" height="11" viewBox="0 0 130 11" fill="none" xmlns="http://www.w3.org/2000/svg">
<path fill-rule="evenodd" clip-rule="evenodd" d="M0 5.59064L2.09706 6.15254L2.92974 3.04495L0 2.25992V0.872128L3.27669 1.75011L3.74563 0H5.13343L4.57152 2.09706L7.67911 2.92974L8.46414 0H9.85193L8.97395 3.27669L10.7241 3.74563V5.13343L8.627 4.57152L7.79432 7.67912L10.7241 8.46414V9.85194L7.44737 8.97395L6.97843 10.7241H5.59063L6.15254 8.627L3.04494 7.79432L2.25992 10.7241H0.872128L1.75011 7.44737L0 6.97843V5.59064ZM4.22457 3.3919L3.39189 6.49949L6.49949 7.33217L7.33217 4.22457L4.22457 3.3919Z" fill="#FF6565"/>
<path d="M84.1742 0H77.4951V10.7241H84.1755L85.5116 9.38372V1.34165L84.1742 0ZM84.1755 9.38372H78.8312V1.34165H84.1755V9.38372Z" fill="white"/>
<path d="M130.001 9.38372V10.7241H124.649L123.312 9.38372V0H124.649V9.38372H130.001Z" fill="white"/>
<path d="M88.5004 0H87.1201V10.7241H88.5004V0Z" fill="white"/>
<path d="M101.115 0H99.7344V10.7241H101.115V0Z" fill="white"/>
<path d="M96.7902 2.67735V1.33932H91.4455V9.36746H96.7902V6.69141H94.1179V5.35339H96.7902L98.1264 6.69141V9.36746L96.7902 10.7055H91.4455L90.1094 9.36746V1.33932L91.4468 0H96.7889L98.1264 1.33932V2.67735H96.7902Z" fill="white"/>
<path d="M108.068 10.7055H106.565V1.33932H102.724V0H108.068V10.7055Z" fill="white"/>
<path d="M112.077 0V1.33932H108.402V0H112.077Z" fill="white"/>
<path d="M120.366 0H115.022L113.686 1.33802V10.7055H115.022V8.02944H120.366V10.7055H121.703V1.33802L120.366 0ZM120.366 6.69141H115.022V1.33802H120.366V6.69141Z" fill="white"/>
<path d="M65.7089 4.69251H71.0604V6.03285H65.7089V9.38372H71.0604V10.7241H65.7089L64.3711 9.38372V1.34165L65.7102 0H71.0604V1.34165H65.7089V4.69251Z" fill="white"/>
<path d="M61.4252 0H54.7461V10.7241H61.4265L62.7626 9.38372V1.34165L61.4252 0ZM61.4265 9.38372H56.0822V1.34165H61.4265V9.38372Z" fill="white"/>
<path d="M53.1376 0V9.38372L51.8015 10.7241H46.4572L45.1211 9.38372V0H46.4572V9.38372H51.8015V0H53.1376Z" fill="white"/>
<path d="M43.5125 9.38372V10.7241H38.1611L36.8232 9.38372V0H38.1611V9.38372H43.5125Z" fill="white"/>
<path d="M33.8692 2.68199V1.34165H28.4895V9.38372H33.8692V8.04337H35.2141V9.38372L33.8692 10.7241H28.4895L27.1445 9.38372V1.34165L28.4908 0H33.8679L35.2141 1.34165V2.68199H33.8692Z" fill="white"/>
<path d="M25.5364 0V10.7241H23.8579L19.158 2.68199V1.34165H18.8266V10.7241H17.4668V0H19.158V0.00130211L23.8579 8.04337V9.38372H24.1936V0H25.5364Z" fill="white"/>
<path d="M15.8579 0H14.4775V10.7241H15.8579V0Z" fill="white"/>
</svg>
