<svg width="223" height="19" viewBox="0 0 223 19" fill="none" xmlns="http://www.w3.org/2000/svg">
<path fill-rule="evenodd" clip-rule="evenodd" d="M0 9.59009L3.59727 10.554L5.02563 5.22325L0 3.87664V1.49604L5.62078 3.00212L6.4252 0H8.8058L7.84192 3.59727L13.1726 5.02563L14.5193 0H16.8999L15.3938 5.62078L18.3959 6.4252V8.80581L14.7986 7.84192L13.3703 13.1726L18.3959 14.5193V16.8999L12.7751 15.3938L11.9707 18.3959H9.59009L10.554 14.7986L5.22325 13.3703L3.87664 18.3959H1.49603L3.00212 12.7751L0 11.9707V9.59009ZM7.24677 5.81841L5.8184 11.1491L11.1491 12.5775L12.5775 7.24677L7.24677 5.81841Z" fill="#FF6565"/>
<path d="M144.39 0H132.933V18.3959H144.393L146.685 16.0967V2.30144L144.39 0ZM144.393 16.0967H135.225V2.30144H144.393V16.0967Z" fill="white"/>
<path d="M223 16.0967V18.3959H213.82L211.525 16.0967V0H213.82V16.0967H223Z" fill="white"/>
<path d="M151.812 0H149.444V18.3959H151.812V0Z" fill="white"/>
<path d="M173.451 0H171.083V18.3959H173.451V0Z" fill="white"/>
<path d="M166.031 4.59268V2.29745H156.863V16.0688H166.031V11.4783H161.447V9.18312H166.031L168.323 11.4783V16.0688L166.031 18.364H156.863L154.571 16.0688V2.29745L156.865 0H166.029L168.323 2.29745V4.59268H166.031Z" fill="white"/>
<path d="M185.378 18.364H182.8V2.29745H176.21V0H185.378V18.364Z" fill="white"/>
<path d="M192.254 0V2.29745H185.951V0H192.254Z" fill="white"/>
<path d="M206.474 0H197.306L195.014 2.29522V18.364H197.306V13.7736H206.474V18.364H208.766V2.29522L206.474 0ZM206.474 11.4783H197.306V2.29522H206.474V11.4783Z" fill="white"/>
<path d="M112.716 8.04946H121.896V10.3487H112.716V16.0967H121.896V18.3959H112.716L110.421 16.0967V2.30144L112.718 0H121.896V2.30144H112.716V8.04946Z" fill="white"/>
<path d="M105.367 0H93.9102V18.3959H105.37L107.662 16.0967V2.30144L105.367 0ZM105.37 16.0967H96.2021V2.30144H105.37V16.0967Z" fill="white"/>
<path d="M91.1509 0V16.0967L88.859 18.3959H79.6914L77.3995 16.0967V0H79.6914V16.0967H88.859V0H91.1509Z" fill="white"/>
<path d="M74.6401 16.0967V18.3959H65.4603L63.1654 16.0967V0H65.4603V16.0967H74.6401Z" fill="white"/>
<path d="M58.0989 4.60065V2.30144H48.8706V16.0967H58.0989V13.7975H60.4059V16.0967L58.0989 18.3959H48.8706L46.5635 16.0967V2.30144L48.8728 0H58.0966L60.4059 2.30144V4.60065H58.0989Z" fill="white"/>
<path d="M43.8041 0V18.3959H40.9248L32.8627 4.60065V2.30144H32.2942V18.3959H29.9617V0H32.8627V0.00223363L40.9248 13.7975V16.0967H41.5007V0H43.8041Z" fill="white"/>
<path d="M27.2023 0H24.8345V18.3959H27.2023V0Z" fill="white"/>
</svg>
