<svg width="138" height="19" viewBox="0 0 138 19" fill="none" xmlns="http://www.w3.org/2000/svg">
<g filter="url(#filter0_d)">
<path fill-rule="evenodd" clip-rule="evenodd" d="M4 5.59088L6.09706 6.15279L6.92974 3.04519L4 2.26017V0.872372L7.27669 1.75036L7.74563 0.000244141H9.13343L8.57152 2.09731L11.6791 2.92999L12.4641 0.000244141H13.8519L12.9739 3.27693L14.7241 3.74588V5.13367L12.627 4.57177L11.7943 7.67936L14.7241 8.46439V9.85218L11.4474 8.97419L10.9784 10.7243H9.59063L10.1525 8.62724L7.04494 7.79457L6.25992 10.7243H4.87213L5.75011 7.44762L4 6.97868V5.59088ZM8.22457 3.39214L7.39189 6.49974L10.4995 7.33241L11.3322 4.22482L8.22457 3.39214Z" fill="#FF6565"/>
<path d="M88.1742 0.000976562H81.4951V10.725H88.1755L89.5116 9.38469V1.34262L88.1742 0.000976562ZM88.1755 9.38469H82.8312V1.34262H88.1755V9.38469Z" fill="#374A70"/>
<path d="M134.001 9.38445V10.7248H128.649L127.312 9.38445V0.000732422H128.649V9.38445H134.001Z" fill="#374A70"/>
<path d="M92.5004 0.000732422H91.1201V10.7248H92.5004V0.000732422Z" fill="#374A70"/>
<path d="M105.116 0.000732422H103.735V10.7248H105.116V0.000732422Z" fill="#374A70"/>
<path d="M100.79 2.67808V1.34006H95.4455V9.36819H100.79V6.69215H98.1179V5.35412H100.79L102.126 6.69215V9.36819L100.79 10.7062H95.4455L94.1094 9.36819V1.34006L95.4468 0.000732422H100.789L102.126 1.34006V2.67808H100.79Z" fill="#374A70"/>
<path d="M112.068 10.7062H110.565V1.34006H106.724V0.000732422H112.068V10.7062Z" fill="#374A70"/>
<path d="M116.077 0.000732422V1.34006H112.402V0.000732422H116.077Z" fill="#374A70"/>
<path d="M124.366 0.000732422H119.022L117.686 1.33875V10.7062H119.022V8.03017H124.366V10.7062H125.703V1.33875L124.366 0.000732422ZM124.366 6.69215H119.022V1.33875H124.366V6.69215Z" fill="#374A70"/>
<path d="M69.7089 4.69349H75.0604V6.03383H69.7089V9.38469H75.0604V10.725H69.7089L68.3711 9.38469V1.34262L69.7102 0.000976562H75.0604V1.34262H69.7089V4.69349Z" fill="#374A70"/>
<path d="M65.4252 0.000976562H58.7461V10.725H65.4265L66.7626 9.38469V1.34262L65.4252 0.000976562ZM65.4265 9.38469H60.0822V1.34262H65.4265V9.38469Z" fill="#374A70"/>
<path d="M57.1376 0.000976562V9.38469L55.8015 10.725H50.4572L49.1211 9.38469V0.000976562H50.4572V9.38469H55.8015V0.000976562H57.1376Z" fill="#374A70"/>
<path d="M47.5125 9.38469V10.725H42.1611L40.8232 9.38469V0.000976562H42.1611V9.38469H47.5125Z" fill="#374A70"/>
<path d="M37.8692 2.68297V1.34262H32.4895V9.38469H37.8692V8.04435H39.2141V9.38469L37.8692 10.725H32.4895L31.1445 9.38469V1.34262L32.4908 0.000976562H37.8679L39.2141 1.34262V2.68297H37.8692Z" fill="#374A70"/>
<path d="M29.5364 0.000976562V10.725H27.8579L23.158 2.68297V1.34262H22.8266V10.725H21.4668V0.000976562H23.158V0.00227868L27.8579 8.04435V9.38469H28.1936V0.000976562H29.5364Z" fill="#374A70"/>
<path d="M19.8579 0.0012207H18.4775V10.7253H19.8579V0.0012207Z" fill="#374A70"/>
</g>
<defs>
<filter id="filter0_d" x="0" y="0.000244141" width="138.001" height="18.725" filterUnits="userSpaceOnUse" color-interpolation-filters="sRGB">
<feFlood flood-opacity="0" result="BackgroundImageFix"/>
<feColorMatrix in="SourceAlpha" type="matrix" values="0 0 0 0 0 0 0 0 0 0 0 0 0 0 0 0 0 0 127 0" result="hardAlpha"/>
<feOffset dy="4"/>
<feGaussianBlur stdDeviation="2"/>
<feComposite in2="hardAlpha" operator="out"/>
<feColorMatrix type="matrix" values="0 0 0 0 0 0 0 0 0 0 0 0 0 0 0 0 0 0 0.25 0"/>
<feBlend mode="normal" in2="BackgroundImageFix" result="effect1_dropShadow"/>
<feBlend mode="normal" in="SourceGraphic" in2="effect1_dropShadow" result="shape"/>
</filter>
</defs>
</svg>
