<svg width="223" height="19" viewBox="0 0 223 19" fill="none" xmlns="http://www.w3.org/2000/svg">
<path fill-rule="evenodd" clip-rule="evenodd" d="M0 9.59034L3.59727 10.5542L5.02563 5.2235L0 3.87688V1.49628L5.62078 3.00236L6.4252 0.000244141H8.8058L7.84192 3.59752L13.1726 5.02588L14.5192 0.000244141H16.8999L15.3938 5.62103L18.3959 6.42544V8.80605L14.7986 7.84216L13.3703 13.1729L18.3959 14.5195V16.9001L12.7751 15.394L11.9707 18.3961H9.59009L10.554 14.7989L5.22325 13.3705L3.87664 18.3961H1.49603L3.00212 12.7754L0 11.9709V9.59034ZM7.24677 5.81865L5.8184 11.1494L11.1491 12.5777L12.5775 7.24701L7.24677 5.81865Z" fill="#FF6565"/>
<path d="M144.39 0.000244141H132.933V18.3961H144.393L146.685 16.0969V2.30168L144.39 0.000244141ZM144.393 16.0969H135.225V2.30168H144.393V16.0969Z" fill="#374A70"/>
<path d="M223 16.0967V18.3959H213.82L211.526 16.0967V0H213.82V16.0967H223Z" fill="#374A70"/>
<path d="M151.812 0H149.444V18.3959H151.812V0Z" fill="#374A70"/>
<path d="M173.451 0H171.083V18.3959H173.451V0Z" fill="#374A70"/>
<path d="M166.031 4.59268V2.29745H156.863V16.0688H166.031V11.4783H161.447V9.18312H166.031L168.324 11.4783V16.0688L166.031 18.364H156.863L154.571 16.0688V2.29745L156.866 0H166.029L168.324 2.29745V4.59268H166.031Z" fill="#374A70"/>
<path d="M185.378 18.364H182.8V2.29745H176.21V0H185.378V18.364Z" fill="#374A70"/>
<path d="M192.254 0V2.29745H185.951V0H192.254Z" fill="#374A70"/>
<path d="M206.474 0H197.306L195.014 2.29522V18.364H197.306V13.7736H206.474V18.364H208.766V2.29522L206.474 0ZM206.474 11.4783H197.306V2.29522H206.474V11.4783Z" fill="#374A70"/>
<path d="M112.716 8.04946H121.896V10.3487H112.716V16.0967H121.896V18.3959H112.716L110.421 16.0967V2.30144L112.718 0H121.896V2.30144H112.716V8.04946Z" fill="#374A70"/>
<path d="M105.368 0H93.9103V18.3959H105.37L107.662 16.0967V2.30144L105.368 0ZM105.37 16.0967H96.2022V2.30144H105.37V16.0967Z" fill="#374A70"/>
<path d="M91.1509 0V16.0967L88.859 18.3959H79.6914L77.3995 16.0967V0H79.6914V16.0967H88.859V0H91.1509Z" fill="#374A70"/>
<path d="M74.6402 16.0967V18.3959H65.4605L63.1655 16.0967V0H65.4605V16.0967H74.6402Z" fill="#374A70"/>
<path d="M58.0989 4.60065V2.30144H48.8706V16.0967H58.0989V13.7975H60.406V16.0967L58.0989 18.3959H48.8706L46.5635 16.0967V2.30144L48.8729 0H58.0967L60.406 2.30144V4.60065H58.0989Z" fill="#374A70"/>
<path d="M43.8041 0V18.3959H40.9248L32.8627 4.60065V2.30144H32.2942V18.3959H29.9617V0H32.8627V0.00223362L40.9248 13.7975V16.0967H41.5007V0H43.8041Z" fill="#374A70"/>
<path d="M27.2023 0.000732422H24.8345V18.3966H27.2023V0.000732422Z" fill="#374A70"/>
</svg>
